# Blender 5.1.0
# www.blender.org
mtllib fatty.mtl
o Mesh_0004.rip.003_Mesh_0004.rip_mesh0000.003
v 0.149414 0.567812 -0.180799
v 0.166445 0.622617 -0.103807
v 0.268125 0.559336 -0.003807
v 0.255000 0.548320 0.096193
v 0.312813 0.448203 0.096193
v -0.057734 0.661797 -0.003807
v 0.059570 0.672148 -0.003807
v 0.056641 0.655625 -0.103807
v -0.045937 0.595000 -0.180799
v 0.027031 0.518516 -0.243807
v 0.000000 0.334375 -0.266815
v -0.090273 0.462227 -0.243807
v -0.139687 0.554102 -0.180799
v -0.054922 0.645781 -0.103807
v -0.163672 0.596328 -0.103807
v -0.234023 0.496055 -0.003807
v 0.255000 0.548320 -0.103807
v 0.249024 0.431211 -0.190487
v 0.316211 0.334375 -0.110487
v 0.239453 0.247187 -0.190487
v 0.249024 0.431211 0.182873
v 0.166445 0.622617 0.096193
v 0.239453 0.247187 0.182873
v 0.150938 0.334375 0.242677
v 0.027031 0.518516 0.236193
v -0.090273 0.334375 0.236193
v 0.013516 0.423906 0.259201
v -0.090273 0.462227 0.236193
v -0.054922 0.645781 0.096193
v -0.163672 0.596328 0.096193
v -0.219844 0.494648 0.096193
v 0.175000 0.637461 -0.003807
v 0.056641 0.655625 0.096193
v 0.312813 0.448203 -0.103807
v 0.316211 0.334375 0.102873
v -0.171914 0.611953 -0.003807
v 0.149414 0.567812 0.173185
v 0.121719 0.436484 -0.243807
v 0.150938 0.334375 -0.250291
v 0.332500 0.334375 -0.003807
v 0.328906 0.454062 -0.003807
v 0.281523 0.231914 -0.110487
v 0.296016 0.226640 -0.003807
v 0.281523 0.231914 0.102873
v 0.013516 0.423906 -0.266815
v -0.172890 0.490547 -0.180799
v -0.219844 0.494648 -0.103807
v 0.121719 0.436484 0.236193
v -0.045937 0.595000 0.173185
v -0.139687 0.554102 0.173185
v 0.183789 0.108906 -0.110487
v -0.119414 -0.011523 -0.003807
v 0.000000 -0.007305 -0.003807
v 0.000000 0.007617 -0.108612
v 0.000000 0.036992 -0.202674
v 0.000000 0.094766 -0.258416
v 0.183789 0.108906 0.102873
v 0.191055 0.096289 -0.003807
v 0.098945 0.024727 -0.003807
v 0.086289 0.048359 -0.146971
v 0.138906 0.155547 -0.190487
v 0.090234 0.219062 -0.243807
v -0.200273 0.035273 -0.110487
v -0.108984 0.002813 -0.117948
v -0.096328 0.028320 -0.201268
v -0.090312 0.280000 -0.248026
v -0.183555 0.281055 -0.185409
v -0.234062 0.281055 -0.106034
v -0.175195 0.207383 -0.194393
v -0.183320 0.386016 -0.181776
v -0.230508 0.388086 -0.103494
v -0.245977 0.201719 -0.003807
v -0.220430 0.120430 0.101779
v -0.183555 0.281055 0.177795
v -0.090312 0.280000 0.240412
v -0.108984 0.002813 0.110334
v 0.000000 0.007617 0.100998
v -0.096328 0.028320 0.193654
v -0.090000 0.083984 0.248576
v -0.183320 0.386016 0.174162
v -0.172891 0.490547 0.173185
v -0.230508 0.388086 0.095881
v 0.000000 0.036992 0.195060
v 0.138906 0.155547 0.182873
v 0.086289 0.048359 0.139357
v -0.165742 0.132148 -0.199198
v -0.090000 0.181758 -0.271971
v -0.234062 0.281055 0.098420
v -0.248359 0.281055 -0.003807
v -0.244766 0.388789 -0.003807
v 0.000000 0.190547 -0.267987
v -0.090273 0.334375 -0.243807
v -0.155078 0.055117 0.192131
v -0.090000 0.181758 0.264357
v 0.000000 0.334375 0.259201
v 0.090234 0.219062 0.236193
v 0.000000 0.190547 0.260373
v -0.165742 0.132148 0.191584
v -0.200273 0.035273 0.102873
v -0.216250 0.028828 -0.003807
v -0.235273 0.117656 -0.003807
v -0.220430 0.120430 -0.109393
v -0.155078 0.055117 -0.199744
v -0.175195 0.207461 0.186818
v -0.231719 0.202344 0.100295
v -0.090000 0.083984 -0.256190
v -0.231719 0.202344 -0.107909
v 0.000000 0.094766 0.250802
vn 0.0976 0.9064 -0.4110
vn 0.4344 0.8165 -0.3803
vn 0.3402 0.5719 -0.7465
vn 0.6917 0.5802 -0.4300
vn -0.2495 0.9684 -0.0000
vn -0.2333 0.9037 -0.3590
vn -0.6358 0.6926 -0.3407
vn -0.6722 0.7404 -0.0000
vn 0.9608 0.2771 -0.0000
vn 0.7660 0.6428 -0.0000
vn 0.6917 0.5802 0.4300
vn 0.8876 0.2596 0.3806
vn 0.4344 0.8165 0.3803
vn 0.4756 0.8797 -0.0000
vn 0.6144 0.2089 0.7609
vn 0.9016 -0.1142 0.4171
vn 0.6144 0.2089 -0.7609
vn 0.9016 -0.1142 -0.4171
vn 0.6194 -0.3161 -0.7186
vn 0.3549 -0.0564 -0.9332
vn 0.6194 -0.3161 0.7186
vn 0.8224 -0.4611 0.3333
vn 0.8224 -0.4611 -0.3333
vn 0.6596 -0.6651 -0.3501
vn 0.5142 -0.4460 -0.7326
vn 0.6909 -0.7230 -0.0000
vn 0.8784 -0.4780 -0.0000
vn 0.1032 0.9947 -0.0000
vn 0.0976 0.9064 0.4110
vn -0.1504 0.6934 -0.7047
vn -0.1504 0.6934 0.7047
vn 0.0535 0.4561 0.8883
vn 0.3402 0.5719 0.7464
vn 0.0070 0.1368 0.9906
vn -0.0262 0.0227 0.9994
vn 0.3549 -0.0564 0.9332
vn 0.3064 0.2284 0.9241
vn 0.3268 -0.1880 -0.9262
vn -0.0262 0.0227 -0.9994
vn 0.0070 0.1368 -0.9906
vn -0.3577 0.2064 -0.9107
vn 0.0535 0.4561 -0.8883
vn -0.5033 0.5299 0.6826
vn -0.3577 0.2064 0.9107
vn -0.2333 0.9037 0.3590
vn -0.6358 0.6926 0.3407
vn -0.9397 0.0638 -0.3361
vn -0.7262 0.0475 -0.6859
vn -0.7297 0.0404 -0.6825
vn -0.9393 0.0042 -0.3431
vn -0.7462 0.0021 -0.6657
vn -0.9360 -0.0686 -0.3452
vn 0.8876 0.2596 -0.3806
vn 0.4940 -0.7680 -0.4075
vn 0.2639 -0.7993 -0.5398
vn 0.2676 -0.4262 -0.8641
vn 0.1910 -0.9594 0.2077
vn 0.1900 -0.9818 -0.0000
vn 0.4695 -0.8829 -0.0000
vn 0.4940 -0.7680 0.4075
vn -0.9291 -0.1514 0.3374
vn -0.7582 -0.1017 0.6441
vn -0.7461 0.0022 0.6658
vn -0.9360 -0.0686 0.3452
vn 0.3064 0.2284 -0.9241
vn 0.3268 -0.1880 0.9262
vn 0.5142 -0.4460 0.7326
vn -0.6168 -0.5052 -0.6037
vn -0.7327 -0.6073 -0.3071
vn -0.9291 -0.1514 -0.3374
vn -0.7582 -0.1017 -0.6441
vn 0.6596 -0.6651 0.3501
vn -0.9050 0.2752 -0.3245
vn -0.5033 0.5299 -0.6826
vn -0.7127 0.2200 -0.6660
vn 0.9897 -0.1431 -0.0000
vn -0.9846 -0.1747 -0.0000
vn -0.7687 -0.6397 -0.0000
vn -0.7327 -0.6073 0.3071
vn -0.9567 0.2910 -0.0000
vn -0.9050 0.2752 0.3245
vn -0.3838 0.0909 0.9189
vn -0.4042 0.0416 0.9137
vn -0.7262 0.0475 0.6859
vn -0.7297 0.0405 0.6825
vn -0.3838 0.0908 -0.9189
vn 0.1598 -0.0666 -0.9849
vn -0.3458 -0.0096 -0.9383
vn -0.7127 0.2200 0.6660
vn -0.2569 -0.3950 -0.8820
vn -0.1336 -0.8441 -0.5193
vn -0.1582 -0.9592 -0.2345
vn 0.2676 -0.4262 0.8641
vn 0.1598 -0.0666 0.9849
vn -0.3457 -0.0096 0.9383
vn -0.2569 -0.3950 0.8820
vn -0.1582 -0.9592 0.2345
vn -0.1728 -0.9850 -0.0000
vn 0.2639 -0.7993 0.5398
vn -0.1336 -0.8441 0.5192
vn -0.4042 0.0416 -0.9137
vn -0.6167 -0.5052 0.6037
vn -0.9969 -0.0791 -0.0000
vn -1.0000 0.0033 -0.0000
vn -0.9393 0.0042 0.3431
vn -0.9977 0.0672 -0.0000
vn -0.9397 0.0638 0.3361
vn 0.1910 -0.9594 -0.2077
vt 0.000000 1.000000
vt 0.750000 0.839966
vt 0.500000 0.839966
vt 0.500000 0.680054
vt 0.750000 0.680054
vt 0.500000 0.563721
vt 0.750000 0.563721
vt 1.250000 0.423706
vt 1.528931 0.435669
vt 1.500000 0.563721
vt 1.250000 0.563721
vt 0.473267 0.268066
vt 0.750000 0.260010
vt 0.750000 0.423706
vt 0.471069 0.435669
vt 1.000000 0.423706
vt 1.000000 0.260010
vt 1.250000 0.260010
vt 1.750000 0.680054
vt 1.750000 0.750000
vt 1.500000 0.839966
vt 1.500000 0.680054
vt 0.250000 0.680054
vt 0.000000 0.750000
vt 0.000000 0.510010
vt 0.237915 0.512817
vt 0.250000 0.125000
vt 0.250000 0.000000
vt 0.500000 0.000000
vt 0.500000 0.125000
vt 0.749756 0.125000
vt 2.000000 0.364746
vt 2.000000 0.510010
vt 1.762085 0.512817
vt 1.750000 0.351440
vt 1.250000 0.000000
vt 1.250244 0.125000
vt 1.000000 0.125000
vt 1.000000 0.000000
vt 1.500000 0.000000
vt 1.500000 0.125000
vt 1.750000 0.000000
vt 1.750000 0.125000
vt 0.250000 0.351440
vt 1.526733 0.268066
vt 1.000000 0.563721
vt 1.000000 0.680054
vt 1.250000 0.680054
vt 1.000000 0.839966
vt 1.250000 0.839966
vt 0.750000 0.000000
vt 1.250000 1.000000
vt 1.500000 1.000000
vt 0.750000 1.000000
vt 0.500000 1.000000
vt 0.250000 0.750000
vt 0.250000 1.000000
vt 2.000000 0.750000
vt 1.000000 1.000000
vt 1.750000 1.000000
vt 0.000000 0.364746
s 1
usemtl None
f 8/1/1 2/1/2 1/1/3
f 1/1/3 2/1/2 17/1/4
f 6/1/5 14/1/6 15/1/7 36/1/8
f 41/1/9 3/1/10 4/1/11 5/1/12
f 22/1/13 4/1/11 3/1/10 32/1/14
f 4/1/11 21/1/15 5/1/12
f 5/1/12 21/1/15 35/1/16
f 18/1/17 19/1/18 20/1/19 39/1/20
f 35/1/16 23/1/21 44/1/22
f 20/1/19 42/1/23 51/1/24 61/1/25
f 58/1/26 51/1/24 42/1/23 43/1/27
f 14/1/6 6/1/5 7/1/28 8/1/1
f 32/1/14 7/1/28 33/1/29 22/1/13
f 14/1/6 8/1/1 9/1/30
f 33/1/29 49/1/31 25/1/32 37/1/33
f 27/1/34 95/1/35 24/1/36 48/1/37
f 39/1/20 62/1/38 11/1/39
f 45/1/40 12/1/41 10/1/42
f 50/1/43 28/1/44 25/1/32 49/1/31
f 49/1/31 29/1/45 30/1/46 50/1/43
f 6/1/5 36/1/8 30/1/46 29/1/45
f 71/2/47 70/3/48 67/4/49 68/5/50
f 68/5/50 67/4/49 69/6/51 107/7/52
f 17/1/4 34/1/53 18/1/17
f 34/1/53 19/1/18 18/1/17
f 60/1/54 55/1/55 56/1/56 61/1/25
f 19/1/18 42/1/23 20/1/19
f 77/1/57 53/1/58 59/1/59 85/1/60
f 73/8/61 98/9/62 104/10/63 105/11/64
f 1/1/3 17/1/4 18/1/17 38/1/65
f 37/1/33 4/1/11 22/1/13
f 3/1/10 17/1/4 2/1/2 32/1/14
f 17/1/4 3/1/10 41/1/9 34/1/53
f 62/1/38 39/1/20 20/1/19 61/1/25
f 96/1/66 24/1/36 95/1/35
f 96/1/66 84/1/67 23/1/21 24/1/36
f 24/1/36 21/1/15 48/1/37
f 10/1/42 1/1/3 38/1/65 45/1/40
f 103/12/68 63/13/69 102/14/70 86/15/71
f 57/1/72 44/1/22 23/1/21 84/1/67
f 27/1/34 25/1/32 28/1/44
f 60/1/54 51/1/24 58/1/26 59/1/59
f 9/1/30 8/1/1 1/1/3 10/1/42
f 47/1/73 15/1/7 13/1/74 46/1/75
f 32/1/14 2/1/2 8/1/1 7/1/28
f 33/1/29 29/1/45 49/1/31
f 5/1/12 35/1/16 40/1/76 41/1/9
f 101/16/77 100/17/78 99/18/79 73/8/61
f 19/1/18 40/1/76 43/1/27 42/1/23
f 30/1/46 36/1/8 16/1/80 31/1/81
f 75/19/82 26/20/83 80/21/84 74/22/85
f 22/1/13 33/1/29 37/1/33
f 66/23/86 11/24/39 91/25/87 87/26/88
f 18/1/17 39/1/20 38/1/65
f 23/1/21 35/1/16 21/1/15 24/1/36
f 16/1/80 36/1/8 15/1/7 47/1/73
f 95/1/35 27/1/34 28/1/44 26/1/83
f 12/1/41 46/1/75 13/1/74
f 81/1/89 28/1/44 50/1/43
f 106/27/90 56/28/56 55/29/55 65/30/91
f 103/12/68 65/30/91 64/31/92 63/13/69
f 108/32/93 97/33/94 94/34/95 79/35/96
f 40/1/76 19/1/18 34/1/53 41/1/9
f 77/36/57 76/37/97 52/38/98 53/39/58
f 83/40/99 78/41/100 76/37/97 77/36/57
f 108/42/93 79/43/96 78/41/100 83/40/99
f 45/1/40 11/1/39 92/1/101 12/1/41
f 85/1/60 59/1/59 58/1/26 57/1/72
f 60/1/54 61/1/25 51/1/24
f 83/1/99 85/1/60 84/1/67 108/1/93
f 27/1/34 48/1/37 37/1/33 25/1/32
f 91/1/87 11/1/39 62/1/38
f 101/16/77 102/14/70 63/13/69 100/17/78
f 100/17/78 52/38/98 76/37/97 99/18/79
f 45/1/40 38/1/65 39/1/20 11/1/39
f 106/44/90 65/30/91 103/12/68
f 69/6/51 87/26/88 86/15/71
f 94/34/95 75/19/82 74/22/85 104/10/63
f 78/41/100 93/45/102 99/18/79 76/37/97
f 67/4/49 66/23/86 87/26/88 69/6/51
f 101/16/77 73/8/61 105/11/64 72/46/103
f 89/47/104 72/46/103 105/11/64 88/48/105
f 90/49/106 89/47/104 88/48/105 82/50/107
f 90/49/106 71/2/47 68/5/50 89/47/104
f 64/31/92 54/51/108 53/39/58 52/38/98
f 104/10/63 74/22/85 88/48/105 105/11/64
f 82/50/107 88/48/105 74/22/85 80/21/84
f 31/52/81 82/50/107 80/21/84 81/53/89
f 47/54/73 46/55/75 70/3/48 71/2/47
f 102/14/70 101/16/77 72/46/103 107/7/52
f 65/30/91 55/29/55 54/51/108 64/31/92
f 43/1/27 44/1/22 57/1/72 58/1/26
f 70/3/48 92/56/101 66/23/86 67/4/49
f 46/55/75 12/57/41 92/56/101 70/3/48
f 69/6/51 86/15/71 102/14/70 107/7/52
f 93/45/102 79/35/96 94/34/95 98/9/62
f 95/58/35 26/20/83 75/19/82
f 9/1/30 13/1/74 15/1/7 14/1/6
f 63/13/69 64/31/92 52/38/98 100/17/78
f 43/1/27 40/1/76 35/1/16 44/1/22
f 16/59/80 47/54/73 71/2/47 90/49/106
f 94/34/95 104/10/63 98/9/62
f 97/1/94 108/1/93 84/1/67 96/1/66
f 91/1/87 62/1/38 61/1/25 56/1/56
f 81/53/89 80/21/84 26/20/83 28/60/44
f 83/1/99 77/1/57 85/1/60
f 85/1/60 57/1/72 84/1/67
f 59/1/59 53/1/58 54/1/108 60/1/54
f 60/1/54 54/1/108 55/1/55
f 50/1/43 30/1/46 31/1/81 81/1/89
f 21/1/15 4/1/11 37/1/33 48/1/37
f 9/1/30 10/1/42 12/1/41 13/1/74
f 89/47/104 68/5/50 107/7/52 72/46/103
f 97/33/94 95/58/35 75/19/82 94/34/95
f 92/56/101 11/24/39 66/23/86
f 78/41/100 79/35/96 93/45/102
f 103/12/68 86/15/71 87/26/88 106/44/90
f 91/25/87 56/61/56 106/44/90 87/26/88
f 97/1/94 96/1/66 95/1/35
f 7/1/28 6/1/5 29/1/45 33/1/29
f 73/8/61 99/18/79 93/45/102 98/9/62
f 16/59/80 90/49/106 82/50/107 31/52/81
