# Blender 5.1.0
# www.blender.org
mtllib normal.mtl
o Mesh_0004.rip.007_Mesh_0004.rip_mesh0000.008
v 0.056641 0.685625 -0.107326
v 0.149414 0.597812 -0.184319
v 0.166445 0.652617 -0.107326
v 0.312813 0.478203 0.092674
v 0.316211 0.364375 0.099353
v -0.054922 0.675781 0.092674
v -0.057734 0.691797 -0.007326
v 0.027031 0.548516 -0.247326
v 0.000000 0.364375 -0.270334
v -0.045937 0.625000 -0.184319
v -0.054922 0.675781 -0.107326
v -0.171914 0.641953 -0.007326
v -0.163672 0.626328 0.092674
v 0.328906 0.484062 -0.007326
v 0.255000 0.578320 -0.107326
v 0.312813 0.478203 -0.107326
v 0.281523 0.261914 -0.114006
v 0.183789 0.138906 -0.114006
v 0.255000 0.578320 0.092674
v 0.166445 0.652617 0.092674
v 0.268125 0.589336 -0.007326
v 0.138906 0.185547 0.179353
v 0.239453 0.277187 0.179353
v 0.090234 0.249062 0.232674
v 0.249024 0.461211 0.179353
v 0.121719 0.466484 0.232674
v 0.149414 0.597812 0.169666
v 0.000000 0.364375 0.255681
v -0.090273 0.364375 0.232674
v 0.013516 0.453906 0.255681
v -0.045937 0.625000 0.169666
v -0.172891 0.520547 0.169666
v 0.175000 0.667461 -0.007326
v 0.059570 0.702148 -0.007326
v 0.332500 0.364375 -0.007326
v -0.234023 0.526055 -0.007326
v -0.163672 0.626328 -0.107326
v 0.056641 0.685625 0.092674
v 0.121719 0.466484 -0.247326
v 0.249024 0.461211 -0.194006
v 0.150938 0.364375 -0.253811
v 0.090234 0.249062 -0.247326
v 0.138906 0.185547 -0.194006
v 0.316211 0.364375 -0.114006
v 0.296016 0.256641 -0.007326
v 0.191055 0.126289 -0.007326
v 0.281523 0.261914 0.099353
v 0.013516 0.453906 -0.270334
v -0.090273 0.492227 -0.247326
v -0.139687 0.584102 -0.184319
v 0.150938 0.364375 0.239158
v 0.027031 0.548516 0.232674
v -0.139687 0.584102 0.169666
v 0.239453 0.277187 -0.194006
v -0.000625 0.236367 -0.261858
v -0.220000 0.105859 -0.007326
v -0.240781 0.211328 -0.007326
v -0.234062 0.311055 0.092634
v -0.183320 0.416016 0.170642
v -0.090273 0.492227 0.232674
v 0.016016 0.086250 -0.213030
v 0.018359 0.043555 -0.155608
v -0.230508 0.418086 0.092361
v -0.219844 0.524648 0.092674
v -0.186836 0.311055 0.170916
v -0.226523 0.212031 0.092361
v -0.244766 0.418789 -0.007326
v -0.219844 0.524648 -0.107326
v -0.248359 0.311055 -0.007326
v -0.230508 0.418086 -0.107014
v -0.183320 0.416016 -0.185295
v -0.172890 0.520547 -0.184319
v -0.094453 0.294922 -0.249397
v -0.060898 0.068672 -0.204514
v 0.018359 0.043555 0.140955
v -0.060898 0.068672 0.189861
v 0.020703 0.026875 0.092166
v -0.089922 -0.008125 -0.007326
v -0.159141 0.024805 0.090213
v -0.094453 0.294922 0.234744
v 0.022148 0.011602 -0.007326
v -0.205859 0.107266 0.091580
v -0.087305 0.223633 0.234470
v -0.179336 0.214102 0.170642
v -0.087305 0.223633 -0.249123
v -0.090273 0.364375 -0.247326
v -0.186836 0.311055 -0.185569
v -0.226523 0.212031 -0.107014
v -0.179336 0.214102 -0.185295
v 0.007969 0.154141 -0.253186
v -0.084023 0.006016 -0.105842
v 0.020703 0.026875 -0.106819
v -0.000625 0.236367 0.247205
v 0.007969 0.154141 0.238533
v 0.016016 0.086250 0.198377
v 0.183789 0.138906 0.099353
v -0.126563 0.047344 0.168845
v -0.158867 0.117148 0.169822
v -0.126563 0.047344 -0.183498
v -0.077031 0.134141 -0.242170
v -0.158867 0.117148 -0.184475
v -0.159141 0.024805 -0.104866
v -0.205859 0.107266 -0.106233
v -0.170781 0.011875 -0.007326
v -0.084023 0.006016 0.091189
v -0.077031 0.134141 0.227517
v -0.234062 0.311055 -0.107287
vn 0.0976 0.9064 -0.4110
vn 0.4344 0.8165 -0.3803
vn 0.3402 0.5719 -0.7464
vn 0.6917 0.5802 -0.4300
vn -0.6358 0.6926 -0.3407
vn -0.6722 0.7404 -0.0000
vn -0.2495 0.9684 -0.0000
vn -0.2333 0.9037 -0.3590
vn 0.7660 0.6428 -0.0000
vn 0.9608 0.2771 -0.0000
vn 0.8876 0.2596 -0.3806
vn 0.6917 0.5802 0.4300
vn 0.6144 0.2089 0.7609
vn 0.8876 0.2596 0.3806
vn 0.9016 -0.1142 0.4171
vn 0.6194 -0.3161 -0.7186
vn 0.3588 -0.0529 -0.9319
vn 0.6144 0.2089 -0.7609
vn 0.9016 -0.1142 -0.4171
vn 0.6194 -0.3161 0.7186
vn 0.8224 -0.4611 0.3333
vn -0.9050 0.2752 0.3245
vn -0.7127 0.2200 0.6660
vn -0.5033 0.5299 0.6826
vn -0.6358 0.6926 0.3407
vn 0.1032 0.9947 -0.0000
vn 0.4756 0.8797 -0.0000
vn -0.1504 0.6934 -0.7047
vn -0.3552 -0.0772 -0.9316
vn -0.7247 -0.1084 -0.6805
vn -0.7285 -0.0118 -0.6849
vn -0.3880 -0.0187 -0.9215
vn 0.0070 0.1368 0.9906
vn 0.3064 0.2284 0.9241
vn 0.3402 0.5719 0.7465
vn 0.0535 0.4561 0.8883
vn 0.3588 -0.0529 0.9319
vn -0.0455 -0.0162 0.9988
vn -0.0036 -0.0755 0.9971
vn 0.2901 -0.2315 0.9286
vn 0.0070 0.1368 -0.9906
vn -0.3577 0.2064 -0.9107
vn 0.0535 0.4561 -0.8883
vn -0.3577 0.2064 0.9107
vn -0.1504 0.6934 0.7047
vn -0.0608 -0.6575 0.7510
vn 0.2904 -0.6051 0.7413
vn 0.1616 -0.3041 0.9388
vn -0.2685 -0.2868 0.9196
vn -0.2333 0.9037 0.3590
vn -0.8897 -0.3206 -0.3250
vn -0.9336 -0.1296 -0.3341
vn -0.6698 -0.2817 -0.6871
vn -0.9050 0.2752 -0.3245
vn -0.9567 0.2910 -0.0000
vn 0.4344 0.8165 0.3803
vn -0.0179 -0.9556 -0.2940
vn -0.3832 -0.6579 -0.6484
vn -0.0608 -0.6575 -0.7510
vn 0.3340 -0.8140 -0.4752
vn 0.8224 -0.4611 -0.3333
vn 0.5068 -0.4838 0.7135
vn 0.6431 -0.6843 0.3437
vn 0.6769 -0.7361 -0.0000
vn 0.8784 -0.4780 -0.0000
vn 0.0976 0.9064 0.4110
vn -0.3906 0.0132 -0.9205
vn -0.0455 -0.0162 -0.9988
vn -0.0036 -0.0755 -0.9971
vn 0.5068 -0.4838 -0.7135
vn 0.2901 -0.2316 -0.9286
vn 0.3064 0.2284 -0.9241
vn 0.6431 -0.6843 -0.3437
vn -0.5033 0.5299 -0.6826
vn -0.7127 0.2200 -0.6660
vn 0.3754 -0.9268 -0.0000
vn -0.0374 -0.9993 -0.0000
vn 0.3701 -0.9009 -0.2268
vn 0.9897 -0.1431 -0.0000
vn -0.9336 -0.1296 0.3341
vn -0.7247 -0.1084 0.6805
vn -0.7285 -0.0118 0.6849
vn -0.9423 -0.0201 0.3341
vn -0.3880 -0.0187 0.9215
vn -0.3906 0.0132 0.9205
vn -0.7269 0.0462 0.6852
vn 0.3701 -0.9009 0.2268
vn -0.6144 -0.7890 -0.0000
vn -0.0179 -0.9556 0.2940
vn -0.5938 -0.7458 0.3018
vn -0.8897 -0.3206 0.3250
vn -0.6698 -0.2817 0.6871
vn -0.9909 -0.1348 -0.0000
vn -0.9415 -0.3370 -0.0000
vn -0.9401 0.0633 0.3349
vn -0.9423 -0.0201 -0.3341
vn -0.9998 -0.0212 -0.0000
vn -0.7269 0.0462 -0.6852
vn -0.3832 -0.6579 0.6484
vn 0.1616 -0.3041 -0.9388
vn -0.9401 0.0633 -0.3349
vn -0.9978 0.0664 -0.0000
vn -0.2685 -0.2868 -0.9196
vn -0.3552 -0.0772 0.9316
vn -0.5938 -0.7458 -0.3018
vn 0.3340 -0.8140 0.4752
vn 0.2904 -0.6051 -0.7413
vt 0.000000 1.000000
vt 0.250000 0.530029
vt 0.500000 0.530029
vt 0.500000 0.680054
vt 0.250000 0.650391
vt 0.002808 1.000000
vt 1.500000 0.125000
vt 1.500000 0.000000
vt 1.750000 0.000000
vt 1.750000 0.125000
vt 0.750000 0.390015
vt 0.750000 0.530029
vt 0.500000 0.390015
vt 0.750000 0.125000
vt 0.500000 0.239990
vt 0.500000 0.125000
vt 0.625000 0.000000
vt 0.250000 0.750000
vt 0.000000 0.750000
vt 0.000000 0.530029
vt 1.000000 0.000000
vt 1.000000 0.125000
vt 0.750000 0.000000
vt 1.250000 0.530029
vt 1.500000 0.530029
vt 1.500000 0.680054
vt 1.250000 0.680054
vt 1.750000 0.650391
vt 1.750000 0.750000
vt 1.500000 0.839966
vt 1.000000 0.239990
vt 1.250000 0.125000
vt 1.250000 0.239990
vt 1.250000 0.390015
vt 1.500000 0.390015
vt 1.000000 0.530029
vt 1.000000 0.390015
vt 1.250000 1.000000
vt 1.250000 0.839966
vt 1.500000 1.000000
vt 0.750000 0.680054
vt 1.000000 0.680054
vt 0.500000 0.839966
vt 1.750000 0.390015
vt 1.500000 0.239990
vt 0.750000 1.000000
vt 0.500000 1.000000
vt 0.750000 0.839966
vt 1.000000 0.839966
vt 1.000000 1.000000
vt 0.250000 0.390015
vt 0.000000 0.390015
vt 1.750000 0.530029
vt 2.000000 0.530029
vt 0.750000 0.239990
vt 1.750000 1.000000
vt 0.500000 0.000000
vt 1.375000 0.000000
vt 1.250000 0.000000
vt 0.250000 0.000000
vt 0.250000 0.125000
vt 0.250000 1.000000
vt 2.000000 0.750000
vt 2.000000 0.390015
s 1
usemtl None
f 1/1/1 3/1/2 2/1/3
f 2/1/3 3/1/2 15/1/4
f 37/1/5 12/1/6 7/1/7 11/1/8
f 15/1/4 21/1/9 14/1/10 16/1/11
f 19/1/12 25/1/13 4/1/14
f 4/1/14 25/1/13 5/1/15
f 54/1/16 41/1/17 40/1/18 44/1/19
f 5/1/15 23/1/20 47/1/21
f 64/1/22 32/1/23 53/1/24 13/1/25
f 34/1/26 1/1/1 11/1/8 7/1/7
f 1/1/1 34/1/26 33/1/27 3/1/2
f 11/1/8 1/1/1 10/1/28
f 85/2/29 89/3/30 87/4/31 73/5/32
f 30/1/33 26/1/34 27/1/35 52/1/36
f 51/1/37 26/1/34 30/1/33 28/1/38
f 93/6/39 24/1/40 51/1/37 28/6/38
f 48/1/41 49/1/42 8/1/43
f 53/1/24 60/1/44 52/1/36 31/1/45
f 76/7/46 95/8/47 94/9/48 106/10/49
f 13/1/25 6/1/50 7/1/7 12/1/6
f 103/11/51 88/12/52 89/3/30 101/13/53
f 37/1/5 68/1/54 36/1/55 12/1/6
f 21/1/9 33/1/27 20/1/56 19/1/12
f 15/1/4 16/1/11 40/1/18
f 16/1/11 44/1/19 40/1/18
f 91/14/57 99/15/58 74/16/59 62/17/60
f 44/1/19 17/1/61 54/1/16
f 23/1/20 22/1/62 96/1/63 47/1/21
f 47/1/21 96/1/63 46/1/64 45/1/65
f 27/1/35 19/1/12 20/1/56
f 3/1/2 33/1/27 21/1/9 15/1/4
f 38/1/66 20/1/56 33/1/27 34/1/26
f 25/1/13 51/1/37 23/1/20 5/1/15
f 86/18/67 9/19/68 55/20/69 73/5/32
f 54/1/16 43/1/70 42/1/71 41/1/17
f 51/1/37 25/1/13 26/1/34
f 40/1/18 39/1/72 2/1/3 15/1/4
f 2/1/3 8/1/43 10/1/28 1/1/1
f 18/1/73 43/1/70 54/1/16 17/1/61
f 30/1/33 52/1/36 60/1/44
f 86/1/67 49/1/42 48/1/41 9/1/68
f 50/1/74 37/1/5 11/1/8 10/1/28
f 50/1/74 72/1/75 68/1/54 37/1/5
f 19/1/12 4/1/14 14/1/10 21/1/9
f 38/1/66 6/1/50 31/1/45
f 81/21/76 78/22/77 91/14/57 92/23/78
f 5/1/15 47/1/21 45/1/65 35/1/79
f 66/24/80 84/25/81 65/26/82 58/27/83
f 31/1/45 6/1/50 13/1/25 53/1/24
f 80/28/84 29/29/85 59/30/86 65/26/82
f 20/1/56 38/1/66 27/1/35
f 39/1/72 48/1/41 8/1/43 2/1/3
f 40/1/18 41/1/17 39/1/72
f 23/1/20 51/1/37 24/1/40 22/1/62
f 16/1/11 14/1/10 35/1/79 44/1/19
f 96/6/63 77/6/87 81/6/76 46/6/64
f 30/1/33 60/1/44 29/1/85 28/1/38
f 49/1/42 72/1/75 50/1/74
f 32/1/23 60/1/44 53/1/24
f 38/1/66 31/1/45 52/1/36 27/1/35
f 104/31/88 78/22/77 105/32/89 79/33/90
f 84/25/81 66/24/80 82/34/91 98/35/92
f 82/34/91 66/24/80 57/36/93 56/37/94
f 64/38/22 63/39/95 59/30/86 32/40/23
f 107/41/96 88/12/52 57/36/93 69/42/97
f 88/12/52 107/41/96 87/4/31 89/3/30
f 56/37/94 57/36/93 88/12/52 103/11/51
f 73/5/32 87/4/31 71/43/98 86/18/67
f 76/7/46 106/44/49 98/35/92 97/45/99
f 42/6/71 90/6/100 55/6/69
f 42/6/71 55/6/69 9/1/68 41/1/17
f 41/1/17 9/1/68 48/1/41 39/1/72
f 92/6/78 62/6/60 18/6/73
f 68/46/54 72/47/75 71/43/98 70/48/101
f 68/46/54 70/48/101 67/49/102 36/50/55
f 69/42/97 57/36/93 66/24/80 58/27/83
f 100/51/103 85/2/29 55/20/69 90/52/100
f 80/28/84 83/53/104 93/54/39
f 103/11/51 101/13/53 99/15/58 102/55/105
f 70/48/101 107/41/96 69/42/97 67/49/102
f 36/50/55 67/49/102 63/39/95 64/38/22
f 87/4/31 107/41/96 70/48/101 71/43/98
f 63/39/95 58/27/83 65/26/82 59/30/86
f 45/1/65 17/1/61 44/1/19 35/1/79
f 32/40/23 59/30/86 29/29/85 60/56/44
f 96/6/63 22/6/62 95/6/47 75/6/106
f 65/26/82 84/25/81 83/53/104 80/28/84
f 62/17/60 74/16/59 61/57/107
f 105/32/89 75/58/106 76/7/46 97/45/99
f 92/23/78 91/14/57 62/17/60
f 105/32/89 78/22/77 81/21/76 77/59/87
f 90/60/100 61/57/107 74/16/59 100/61/103
f 75/58/106 95/8/47 76/7/46
f 22/6/62 24/6/40 94/6/48 95/6/47
f 77/59/87 75/58/106 105/32/89
f 56/37/94 103/11/51 102/55/105 104/31/88
f 104/31/88 102/55/105 91/14/57 78/22/77
f 86/18/67 71/43/98 72/47/75 49/62/42
f 18/6/73 46/6/64 81/6/76 92/6/78
f 75/6/106 77/6/87 96/6/63
f 49/1/42 50/1/74 10/1/28 8/1/43
f 17/1/61 45/1/65 46/1/64 18/1/73
f 101/13/53 89/3/30 85/2/29 100/51/103
f 36/1/55 64/1/22 13/1/25 12/1/6
f 73/5/32 55/20/69 85/2/29
f 93/54/39 28/63/38 29/29/85 80/28/84
f 6/1/50 38/1/66 34/1/26 7/1/7
f 93/54/39 83/53/104 106/44/49 94/64/48
f 35/1/79 14/1/10 4/1/14 5/1/15
f 106/44/49 83/53/104 84/25/81 98/35/92
f 93/6/39 94/6/48 24/6/40
f 18/6/73 62/6/60 61/6/107 43/6/70
f 43/6/70 61/6/107 90/6/100 42/6/71
f 101/13/53 100/51/103 74/16/59 99/15/58
f 102/55/105 99/15/58 91/14/57
f 25/1/13 19/1/12 27/1/35 26/1/34
f 79/33/90 97/45/99 98/35/92 82/34/91
f 79/33/90 82/34/91 56/37/94 104/31/88
f 79/33/90 105/32/89 97/45/99
f 67/49/102 69/42/97 58/27/83 63/39/95
