# Blender 5.1.0
# www.blender.org
mtllib small.mtl
o Mesh_0004.rip_Mesh_0004.rip_mesh0000
v 0.149414 0.567812 -0.170093
v 0.166445 0.622617 -0.093101
v 0.255000 0.548320 -0.093101
v 0.268125 0.559336 0.006899
v 0.255000 0.548320 0.106899
v 0.312813 0.448203 0.106899
v 0.316211 0.334375 0.113578
v 0.281523 0.231914 0.113578
v 0.183789 0.108906 0.113578
v -0.054922 0.645781 0.106899
v -0.057734 0.661797 0.006899
v 0.059570 0.672148 0.006899
v -0.045937 0.595000 -0.170093
v 0.027031 0.518516 -0.233101
v 0.013516 0.423906 -0.256109
v 0.090234 0.219062 -0.233101
v -0.090273 0.462227 -0.233101
v -0.139687 0.554102 -0.170093
v -0.054922 0.645781 -0.093101
v -0.163672 0.596328 -0.093101
v -0.219844 0.494649 0.106899
v 0.312813 0.448203 -0.093101
v 0.281523 0.231914 -0.099781
v 0.249023 0.431211 0.193578
v 0.149414 0.567812 0.183891
v 0.175000 0.637461 0.006899
v 0.239453 0.247187 0.193578
v 0.000000 0.334375 0.269907
v 0.013516 0.423906 0.269907
v 0.150938 0.334375 0.253383
v 0.027031 0.518516 0.246899
v -0.163672 0.596328 0.106899
v 0.056641 0.655625 -0.093101
v -0.171914 0.611953 0.006899
v -0.234023 0.496055 0.006899
v 0.166445 0.622617 0.106899
v 0.056641 0.655625 0.106899
v 0.121719 0.436484 -0.233101
v 0.150938 0.334375 -0.239586
v 0.249023 0.431211 -0.179781
v 0.239453 0.247187 -0.179781
v 0.332500 0.334375 0.006899
v 0.328906 0.454062 0.006899
v 0.316211 0.334375 -0.099781
v 0.296016 0.226641 0.006899
v -0.172891 0.490547 0.183891
v 0.121719 0.436484 0.246899
v -0.045937 0.595000 0.183891
v -0.139687 0.554102 0.183891
v 0.138906 0.155547 -0.179781
v -0.074766 0.122383 -0.171343
v -0.084297 0.202266 -0.206968
v -0.171094 0.197383 -0.158765
v -0.217344 0.193789 -0.090211
v -0.235898 0.193789 0.006899
v -0.217344 0.193789 0.104008
v -0.090273 0.334375 0.246899
v -0.090273 0.462227 0.246899
v 0.191055 0.096289 0.006899
v 0.183789 0.108906 -0.099781
v 0.005742 0.064727 -0.129468
v 0.000000 0.334375 -0.256109
v -0.165820 0.017734 0.006899
v -0.212461 0.105781 0.006899
v -0.191719 0.107188 0.096586
v -0.181680 0.281055 0.185141
v -0.121406 0.027266 0.082680
v -0.171094 0.197383 0.172563
v -0.090312 0.280000 0.243110
v -0.183320 0.386016 0.184868
v -0.230508 0.388086 0.106586
v -0.248359 0.281055 0.006899
v -0.244766 0.388789 0.006899
v -0.219844 0.494649 -0.093101
v -0.172891 0.490547 -0.170093
v -0.234062 0.281055 0.106899
v -0.230508 0.388086 -0.092789
v -0.181680 0.281055 -0.171343
v -0.234062 0.281055 -0.093101
v 0.000000 0.207422 -0.222711
v -0.090312 0.280000 -0.229312
v -0.090273 0.334375 -0.233101
v 0.090234 0.219062 0.246899
v 0.138906 0.155547 0.193578
v 0.003047 0.132070 0.197758
v 0.005742 0.064727 0.143266
v 0.007383 0.021992 0.006899
v 0.003047 0.132070 -0.183961
v -0.150195 0.112383 0.144633
v -0.121406 0.027266 -0.068882
v 0.000000 0.207422 0.236508
v -0.084297 0.202266 0.220766
v -0.074766 0.122383 0.185141
v -0.060938 0.045117 0.115063
v -0.150195 0.112383 -0.130836
v -0.191719 0.107188 -0.082789
v -0.060938 0.045117 -0.101265
v -0.101133 0.000000 0.006899
v -0.183320 0.386016 -0.171070
vn 0.0976 0.9064 -0.4110
vn 0.4344 0.8165 -0.3803
vn 0.3402 0.5719 -0.7465
vn 0.6917 0.5802 -0.4300
vn -0.2495 0.9684 -0.0000
vn -0.6722 0.7404 -0.0000
vn -0.6358 0.6926 0.3407
vn -0.2333 0.9037 0.3590
vn 0.4344 0.8165 0.3803
vn 0.6917 0.5802 0.4300
vn 0.7660 0.6428 -0.0000
vn 0.4756 0.8797 -0.0000
vn 0.9608 0.2771 -0.0000
vn 0.8876 0.2596 -0.3806
vn 0.6144 0.2089 0.7609
vn 0.8876 0.2596 0.3806
vn 0.9016 -0.1142 0.4171
vn 0.6144 0.2089 -0.7609
vn 0.9016 -0.1142 -0.4171
vn 0.6194 -0.3161 -0.7186
vn 0.3427 -0.0674 -0.9370
vn 0.6194 -0.3161 0.7186
vn 0.8224 -0.4611 0.3333
vn 0.8224 -0.4611 -0.3333
vn 0.5288 -0.7555 -0.3867
vn 0.3401 -0.5646 -0.7520
vn 0.9897 -0.1431 -0.0000
vn -0.2333 0.9037 -0.3590
vn 0.1032 0.9947 -0.0000
vn 0.0976 0.9064 0.4110
vn -0.1504 0.6934 -0.7047
vn -0.1504 0.6934 0.7047
vn 0.0535 0.4561 0.8883
vn 0.3402 0.5719 0.7465
vn 0.0070 0.1368 0.9906
vn -0.0657 -0.0775 0.9948
vn 0.3427 -0.0674 0.9370
vn 0.3064 0.2284 0.9241
vn 0.0070 0.1368 -0.9906
vn -0.3577 0.2064 -0.9107
vn 0.0535 0.4561 -0.8883
vn -0.7881 -0.4433 -0.4271
vn -0.8913 -0.2402 -0.3847
vn -0.6336 -0.2868 -0.7185
vn -0.5106 -0.5023 -0.6978
vn -0.5033 0.5299 0.6826
vn -0.9384 0.0581 0.3406
vn -0.9318 -0.0767 0.3548
vn -0.6943 -0.1083 0.7115
vn -0.7245 0.0297 0.6886
vn -0.6358 0.6926 -0.3407
vn -0.5033 0.5299 -0.6826
vn -0.2237 -0.5364 -0.8138
vn -0.0202 -0.8320 -0.5544
vn -0.3070 -0.8240 -0.4762
vn -0.3580 -0.1656 0.9189
vn -0.4025 -0.0160 0.9153
vn 0.8784 -0.4780 -0.0000
vn 0.5288 -0.7555 0.3867
vn 0.5767 -0.8170 -0.0000
vn 0.1547 -0.3425 -0.9267
vn -0.0421 -0.3629 -0.9309
vn -0.0657 -0.0775 -0.9948
vn 0.1547 -0.3425 0.9267
vn 0.3401 -0.5646 0.7520
vn 0.3064 0.2284 -0.9241
vn -0.2983 -0.3353 -0.8936
vn -0.6943 -0.1083 -0.7115
vn -0.3580 -0.1656 -0.9189
vn -0.3577 0.2064 0.9107
vn -0.9021 -0.4315 -0.0000
vn -0.9751 -0.2219 -0.0000
vn -0.9567 0.2910 -0.0000
vn -0.9050 0.2752 0.3245
vn -0.7127 0.2200 0.6660
vn 0.0243 -0.5910 -0.8063
vn 0.1420 -0.8249 -0.5472
vn -0.7127 0.2200 -0.6660
vn -0.2237 -0.5364 0.8138
vn -0.2983 -0.3353 0.8936
vn -0.6336 -0.2868 0.7185
vn -0.5106 -0.5023 0.6978
vn -0.8913 -0.2402 0.3847
vn -0.7881 -0.4433 0.4271
vn -0.9318 -0.0767 -0.3548
vn -0.9978 -0.0667 -0.0000
vn -0.9384 0.0581 -0.3406
vn -0.7245 0.0297 -0.6887
vn -0.4025 -0.0160 -0.9153
vn 0.1420 -0.8249 0.5472
vn 0.2437 -0.9699 -0.0000
vn 0.0243 -0.5910 0.8063
vn -0.6251 -0.7806 -0.0000
vn -0.0421 -0.3629 0.9309
vn -0.3070 -0.8240 0.4762
vn -0.9050 0.2752 -0.3245
vn -0.9978 0.0664 -0.0000
vn -0.0158 -0.9999 -0.0000
vn -0.0202 -0.8320 0.5544
vt 0.000000 1.000000
vt 0.749023 0.359985
vt 0.750000 0.520020
vt 0.500000 0.520020
vt 0.500000 0.359985
vt 1.250000 0.839966
vt 1.250000 0.680054
vt 1.500000 0.680054
vt 1.500000 0.839966
vt 0.250000 0.359985
vt 0.500000 0.132568
vt 0.561890 0.220947
vt 1.750000 0.680054
vt 1.750000 0.750000
vt 0.250000 0.520020
vt 0.500000 0.680054
vt 0.250000 0.680054
vt 1.000000 0.359985
vt 1.000000 0.520020
vt 0.250000 0.125000
vt 0.250000 0.000000
vt 0.484009 0.000000
vt 1.750000 0.359985
vt 1.750000 0.520020
vt 1.500000 0.520020
vt 1.500000 0.359985
vt 1.250000 0.520020
vt 1.250977 0.359985
vt 0.750000 0.680054
vt 1.000000 0.680054
vt 0.750000 0.839966
vt 0.500000 0.839966
vt 0.250000 0.750000
vt 0.500000 1.000000
vt 0.250000 1.000000
vt 1.000000 0.220947
vt 2.000000 0.359985
vt 2.000000 0.520020
vt 2.000000 0.750000
vt 1.438110 0.220947
vt 1.500000 1.000000
vt 1.750000 1.000000
vt 0.750000 1.000000
vt 1.000000 0.839966
vt 1.000000 1.000000
vt 1.250000 1.000000
vt 0.000000 0.750000
vt 0.000000 0.520020
vt 1.000000 0.212158
vt 1.000000 0.000000
vt 1.500000 0.132568
vt 1.515991 0.000000
vt 1.750000 0.000000
vt 1.750000 0.125000
vt 0.000000 0.359985
s 1
usemtl None
f 33/1/1 2/1/2 1/1/3
f 1/1/3 2/1/2 3/1/4
f 11/1/5 34/1/6 32/1/7 10/1/8
f 36/1/9 5/1/10 4/1/11 26/1/12
f 3/1/4 4/1/11 43/1/13 22/1/14
f 5/1/10 24/1/15 6/1/16
f 6/1/16 24/1/15 7/1/17
f 40/1/18 44/1/19 41/1/20 39/1/21
f 7/1/17 27/1/22 8/1/23
f 41/1/20 23/1/24 60/1/25 50/1/26
f 6/1/16 7/1/17 42/1/27 43/1/13
f 19/1/28 11/1/5 12/1/29 33/1/1
f 26/1/12 12/1/29 37/1/30 36/1/9
f 19/1/28 33/1/1 13/1/31
f 37/1/30 48/1/32 31/1/33 25/1/34
f 29/1/35 28/1/36 30/1/37 47/1/38
f 15/1/39 17/1/40 14/1/41
f 96/2/42 54/3/43 53/4/44 95/5/45
f 48/1/32 10/1/8 32/1/7 49/1/46
f 71/6/47 76/7/48 66/8/49 70/9/50
f 11/1/5 19/1/28 20/1/51 34/1/6
f 13/1/31 18/1/52 20/1/51 19/1/28
f 3/1/4 22/1/14 40/1/18
f 22/1/14 44/1/19 40/1/18
f 95/5/45 51/10/53 97/11/54 90/12/55
f 44/1/19 23/1/24 41/1/20
f 69/13/56 57/14/57 70/9/50 66/8/49
f 45/1/58 8/1/23 9/1/59 59/1/60
f 29/1/35 47/1/38 25/1/34 31/1/33
f 25/1/34 5/1/10 36/1/9
f 4/1/11 3/1/4 2/1/2 26/1/12
f 43/1/13 4/1/11 5/1/10 6/1/16
f 16/1/61 39/1/21 41/1/20 50/1/26
f 80/1/62 62/1/63 39/1/21 16/1/61
f 83/1/64 84/1/65 27/1/22 30/1/37
f 30/1/37 24/1/15 47/1/38
f 14/1/41 1/1/3 38/1/66 15/1/39
f 52/15/67 53/4/44 78/16/68 81/17/69
f 9/1/59 8/1/23 27/1/22 84/1/65
f 29/1/35 31/1/33 58/1/70
f 13/1/31 14/1/41 17/1/40 18/1/52
f 13/1/31 33/1/1 1/1/3 14/1/41
f 15/1/39 38/1/66 39/1/21 62/1/63
f 26/1/12 2/1/2 33/1/1 12/1/29
f 37/1/30 10/1/8 48/1/32
f 64/18/71 55/19/72 54/3/43 96/2/42
f 45/1/58 42/1/27 7/1/17 8/1/23
f 12/1/29 11/1/5 10/1/8 37/1/30
f 32/1/7 34/1/6 35/1/73 21/1/74
f 49/1/46 32/1/7 21/1/74 46/1/75
f 36/1/9 37/1/30 25/1/34
f 24/1/15 5/1/10 25/1/34 47/1/38
f 40/1/18 39/1/21 38/1/66
f 51/20/53 88/21/76 61/22/77 97/11/54
f 42/1/27 44/1/19 22/1/14 43/1/13
f 57/1/57 28/1/36 29/1/35 58/1/70
f 17/1/40 75/1/78 18/1/52
f 46/1/75 58/1/70 49/1/46
f 95/5/45 53/4/44 52/15/67 51/10/53
f 93/23/79 92/24/80 68/25/81 89/26/82
f 89/26/82 68/25/81 56/27/83 65/28/84
f 65/28/84 56/27/83 55/19/72 64/18/71
f 68/25/81 66/8/49 76/7/48 56/27/83
f 79/29/85 54/3/43 55/19/72 72/30/86
f 54/3/43 79/29/85 78/16/68 53/4/44
f 78/16/68 79/29/85 77/31/87 99/32/88
f 81/17/69 78/16/68 99/32/88 82/33/89
f 82/33/89 99/32/88 75/34/78 17/35/40
f 15/1/39 62/1/63 82/1/89 17/1/40
f 86/1/90 87/1/91 59/1/60 9/1/59
f 1/1/3 3/1/4 40/1/18 38/1/66
f 86/1/90 9/1/59 84/1/65 85/1/92
f 64/18/71 96/2/42 90/12/55 63/36/93
f 61/1/77 60/1/25 59/1/60 87/1/91
f 92/24/80 93/23/79 85/37/92 91/38/94
f 28/39/36 57/14/57 69/13/56
f 89/26/82 65/28/84 67/40/95
f 49/1/46 58/1/70 31/1/33 48/1/32
f 46/41/75 70/9/50 57/14/57 58/42/70
f 75/34/78 99/32/88 77/31/87 74/43/96
f 74/43/96 77/31/87 73/44/97 35/45/73
f 21/46/74 71/6/47 70/9/50 46/41/75
f 35/45/73 73/44/97 71/6/47 21/46/74
f 72/30/86 76/7/48 71/6/47 73/44/97
f 44/1/19 42/1/27 45/1/58 23/1/24
f 59/1/60 60/1/25 23/1/24 45/1/58
f 72/30/86 55/19/72 56/27/83 76/7/48
f 85/1/92 84/1/65 83/1/64 91/1/94
f 74/1/96 20/1/51 18/1/52 75/1/78
f 92/24/80 69/13/56 66/8/49 68/25/81
f 35/1/73 34/1/6 20/1/51 74/1/96
f 91/38/94 28/39/36 69/13/56 92/24/80
f 82/33/89 62/47/63 81/17/69
f 80/1/62 16/1/61 50/1/26 88/1/76
f 88/1/76 50/1/26 60/1/25 61/1/77
f 81/17/69 62/47/63 80/48/62 52/15/67
f 98/49/98 87/50/91 94/51/99 67/40/95
f 61/22/77 87/50/91 97/11/54
f 86/52/90 85/53/92 93/54/79 94/51/99
f 27/1/22 7/1/17 24/1/15 30/1/37
f 63/36/93 90/12/55 98/49/98
f 63/36/93 98/49/98 67/40/95
f 51/10/53 52/15/67 80/48/62 88/55/76
f 67/40/95 65/28/84 64/18/71 63/36/93
f 87/50/91 86/52/90 94/51/99
f 89/26/82 67/40/95 94/51/99 93/23/79
f 96/2/42 95/5/45 90/12/55
f 98/49/98 90/12/55 97/11/54 87/50/91
f 77/31/87 79/29/85 72/30/86 73/44/97
f 91/1/94 83/1/64 30/1/37 28/1/36
