# Blender 5.1.0
# www.blender.org
mtllib strong.mtl
o Mesh_0004.rip.006_Mesh_0004.rip_mesh0000.007
v 0.166445 0.652617 -0.102655
v 0.268125 0.589336 -0.002655
v 0.328906 0.484062 -0.002655
v 0.249023 0.461211 0.184025
v 0.239453 0.277187 0.184025
v 0.281523 0.261914 0.104025
v 0.191054 0.126289 -0.002655
v 0.059570 0.702148 -0.002655
v -0.054922 0.675781 -0.102655
v -0.045938 0.625000 -0.179647
v 0.149414 0.597812 -0.179647
v 0.150937 0.364375 -0.249139
v 0.090234 0.249062 -0.242655
v 0.027031 0.548516 -0.242655
v -0.139688 0.584102 -0.179647
v -0.163672 0.626328 -0.102655
v -0.163672 0.626328 0.097345
v 0.183789 0.138906 -0.109334
v 0.149414 0.597812 0.174338
v 0.255000 0.578320 0.097345
v 0.166445 0.652617 0.097345
v 0.175000 0.667461 -0.002655
v 0.090234 0.249062 0.237345
v 0.150937 0.364375 0.243830
v 0.121718 0.466484 0.237345
v 0.027031 0.548516 0.237345
v 0.013515 0.453906 0.260353
v -0.057735 0.691797 -0.002655
v -0.219844 0.524648 0.097345
v 0.056640 0.685625 -0.102655
v 0.056640 0.685625 0.097345
v -0.045938 0.625000 0.174338
v 0.312812 0.478203 -0.102655
v 0.316210 0.364375 -0.109334
v 0.332500 0.364375 -0.002655
v 0.296015 0.256641 -0.002655
v -0.171914 0.641953 -0.002655
v -0.234024 0.526055 -0.002655
v -0.219844 0.524648 -0.102655
v 0.255000 0.578320 -0.102655
v 0.121718 0.466484 -0.242655
v 0.249023 0.461211 -0.189334
v 0.239453 0.277187 -0.189334
v 0.138906 0.185547 -0.189334
v 0.316210 0.364375 0.104025
v 0.312812 0.478203 0.097345
v 0.281523 0.261914 -0.109334
v 0.013515 0.453906 -0.265662
v -0.090274 0.492227 -0.242655
v -0.139688 0.584102 0.174338
v -0.054922 0.675781 0.097345
v -0.186836 0.311055 -0.180897
v -0.234063 0.311055 -0.102616
v -0.230508 0.418086 0.097033
v -0.092305 0.311055 -0.240858
v -0.183321 0.416016 -0.180623
v -0.230508 0.418086 -0.102342
v -0.248360 0.311055 -0.002655
v -0.172891 0.520547 0.174338
v 0.000000 0.364375 -0.265662
v -0.090274 0.364375 -0.242655
v -0.172891 0.520547 -0.179647
v -0.244766 0.418789 -0.002655
v -0.106602 0.014492 -0.067186
v -0.000001 0.053945 -0.101483
v -0.101641 0.029531 -0.134881
v -0.000001 0.125508 -0.208592
v -0.218751 0.141016 0.096525
v -0.230508 0.212031 0.097033
v -0.234063 0.311055 0.097306
v -0.183321 0.217383 0.169377
v -0.092305 0.311055 0.235549
v -0.186836 0.311055 0.175588
v -0.183321 0.416016 0.175314
v -0.090274 0.492227 0.237345
v -0.219063 0.076602 -0.002655
v -0.218751 0.141016 -0.101834
v -0.230508 0.212031 -0.102342
v -0.172891 0.151289 -0.164647
v -0.155821 0.087773 0.145822
v -0.172891 0.151289 0.159338
v -0.000001 0.053945 0.096174
v -0.090274 0.364375 0.237345
v -0.232930 0.139805 -0.002655
v 0.000000 0.364375 0.260353
v -0.000001 0.030313 -0.002655
v 0.183789 0.138906 0.104025
v 0.138906 0.185547 0.184025
v -0.092501 0.172422 -0.216600
v -0.183321 0.217383 -0.174686
v -0.199766 0.079961 0.095822
v -0.169610 0.018477 0.094924
v -0.199766 0.079961 -0.101131
v -0.155821 0.087773 -0.151131
v -0.199141 0.011211 -0.002655
v -0.169610 0.018477 -0.100233
v -0.096524 0.105000 -0.187615
v 0.000000 0.204414 -0.253514
v -0.244766 0.211328 -0.002655
v -0.106602 0.014492 0.061877
v -0.101641 0.029531 0.129572
v -0.113868 0.008164 -0.002655
v -0.000001 0.125508 0.203283
v -0.096524 0.105000 0.182306
v -0.000001 0.204414 0.248205
v -0.092501 0.172422 0.211291
vn 0.0976 0.9064 -0.4110
vn 0.4344 0.8165 -0.3803
vn 0.3402 0.5719 -0.7465
vn 0.6917 0.5802 -0.4300
vn 0.7660 0.6428 -0.0000
vn 0.4756 0.8797 -0.0000
vn 0.4344 0.8165 0.3803
vn 0.6917 0.5802 0.4300
vn 0.8876 0.2596 0.3806
vn 0.9608 0.2771 -0.0000
vn 0.6144 0.2089 0.7609
vn 0.9016 -0.1142 0.4172
vn 0.6194 -0.3161 -0.7186
vn 0.3549 -0.0564 -0.9332
vn 0.6144 0.2089 -0.7609
vn 0.9016 -0.1142 -0.4172
vn 0.6194 -0.3161 0.7186
vn 0.8224 -0.4611 0.3333
vn 0.5735 -0.7364 -0.3589
vn 0.4296 -0.5574 -0.7105
vn 0.8224 -0.4611 -0.3333
vn 0.8876 0.2596 -0.3806
vn 0.9897 -0.1431 -0.0000
vn 0.0976 0.9064 0.4110
vn 0.1032 0.9947 -0.0000
vn -0.2333 0.9037 0.3590
vn -0.2495 0.9684 -0.0000
vn -0.2333 0.9037 -0.3590
vn -0.1504 0.6934 -0.7047
vn -0.1504 0.6934 0.7047
vn 0.0535 0.4561 0.8883
vn 0.3402 0.5719 0.7465
vn 0.4296 -0.5574 0.7105
vn 0.1712 -0.6166 0.7684
vn 0.3223 -0.8684 0.3769
vn 0.5735 -0.7364 0.3589
vn 0.2266 -0.2764 -0.9340
vn -0.0437 -0.0245 -0.9987
vn 0.0070 0.1368 -0.9906
vn -0.3577 0.2064 -0.9107
vn 0.0535 0.4561 -0.8883
vn -0.3991 0.0063 -0.9169
vn -0.6358 0.6926 0.3407
vn -0.5033 0.5299 0.6826
vn -0.6722 0.7404 -0.0000
vn 0.8784 -0.4780 -0.0000
vn 0.6201 -0.7845 -0.0000
vn -0.5033 0.5299 -0.6826
vn -0.6358 0.6926 -0.3407
vn -0.6328 -0.2495 -0.7330
vn -0.3450 -0.2840 -0.8946
vn -0.1761 -0.5301 -0.8294
vn -0.5190 -0.3968 -0.7571
vn -0.4701 -0.7701 -0.4312
vn 0.1320 -0.9789 -0.1560
vn 0.0988 -0.9951 -0.0000
vn -0.6225 -0.7826 -0.0000
vn -0.3450 -0.2840 0.8946
vn -0.1761 -0.5301 0.8294
vn 0.0010 -0.2971 0.9548
vn 0.3549 -0.0564 0.9332
vn 0.2266 -0.2764 0.9340
vn -0.0437 -0.0245 0.9987
vn 0.3064 0.2284 -0.9241
vn 0.3064 0.2284 0.9241
vn 0.3354 -0.9421 -0.0000
vn 0.3223 -0.8684 -0.3769
vn -0.7066 -0.0329 -0.7068
vn -0.7256 0.0415 -0.6869
vn -0.3543 -0.0672 -0.9327
vn 0.0070 0.1368 0.9906
vn -0.3577 0.2064 0.9107
vn -0.7127 0.2200 -0.6660
vn -0.9050 0.2752 -0.3245
vn -0.9567 0.2910 -0.0000
vn -0.9050 0.2752 0.3245
vn -0.3543 -0.0672 0.9327
vn -0.7066 -0.0329 0.7068
vn -0.6813 -0.1321 0.7200
vn -0.9777 -0.2098 -0.0000
vn -0.9501 -0.3121 -0.0000
vn -0.8156 -0.3495 0.4612
vn -0.8950 -0.2249 0.3853
vn -0.3991 0.0063 0.9169
vn -0.7127 0.2200 0.6660
vn -0.9407 -0.0055 0.3391
vn -0.9291 -0.1082 0.3535
vn -1.0000 -0.0013 -0.0000
vn -0.9950 -0.0999 -0.0000
vn -0.9978 0.0664 -0.0000
vn -0.9401 0.0633 0.3349
vn -0.9407 -0.0055 -0.3391
vn -0.9291 -0.1082 -0.3535
vn -0.9401 0.0633 -0.3349
vn -0.7256 0.0415 0.6869
vn -0.8156 -0.3495 -0.4612
vn -0.8950 -0.2249 -0.3853
vn -0.0166 -0.8230 -0.5679
vn -0.4701 -0.7701 0.4312
vn -0.0166 -0.8230 0.5679
vn -0.5190 -0.3968 0.7571
vn -0.6328 -0.2495 0.7330
vn -0.6813 -0.1321 -0.7200
vn 0.1712 -0.6166 -0.7684
vn 0.1320 -0.9789 0.1560
vn 0.0010 -0.2971 -0.9548
vt 0.000000 1.000000
vt 0.517578 0.416504
vt 0.250000 0.446289
vt 0.250000 0.359985
vt 0.561279 0.319946
vt 0.750000 0.239990
vt 0.694946 0.149658
vt 1.000000 0.159546
vt 1.000000 0.239990
vt 1.750000 0.446289
vt 1.750000 0.359985
vt 2.000000 0.359985
vt 2.000000 0.490356
vt 0.500000 0.680054
vt 0.500000 0.839966
vt 0.250000 0.750000
vt 0.250000 0.680054
vt 1.750000 0.680054
vt 1.500000 0.680054
vt 1.500000 0.520020
vt 1.000000 0.413330
vt 1.000000 0.319946
vt 1.250000 0.319946
vt 1.250000 0.413330
vt 1.250000 0.680054
vt 1.250000 0.520020
vt 1.000000 0.680054
vt 1.000000 0.520020
vt 1.250000 1.000000
vt 1.000000 1.000000
vt 1.000000 0.839966
vt 1.250000 0.839966
vt 0.750000 0.680054
vt 0.750000 0.520020
vt 0.750000 0.839966
vt 0.750000 1.000000
vt 0.500000 1.000000
vt 0.250000 1.000000
vt 0.000000 0.750000
vt 1.750000 0.750000
vt 1.500000 0.839966
vt 1.500000 1.000000
vt 0.750000 0.319946
vt 2.000000 0.750000
vt 0.750000 0.413330
vt 1.750000 1.000000
vt 0.500000 0.125000
vt 0.500000 0.000000
vt 1.250000 0.239990
vt 1.599976 0.239990
vt 1.438721 0.319946
vt 1.482422 0.416504
vt 0.500000 0.520020
vt 0.250000 0.125000
vt 0.250000 0.000000
vt 1.305054 0.149658
vt 1.500000 0.000000
vt 1.500000 0.125000
vt 0.400024 0.239990
vt 1.000000 0.000000
vt 0.000000 0.490356
vt 1.750000 0.000000
vt 1.750000 0.125000
vt 0.000000 0.359985
s 1
usemtl None
f 30/1/1 1/1/2 11/1/3
f 11/1/3 1/1/2 40/1/4
f 2/1/5 22/1/6 21/1/7 20/1/8
f 20/1/8 46/1/9 3/1/10 2/1/5
f 1/1/2 22/1/6 2/1/5 40/1/4
f 20/1/8 4/1/11 46/1/9
f 46/1/9 4/1/11 45/1/12
f 43/1/13 12/1/14 42/1/15 34/1/16
f 45/1/12 5/1/17 6/1/18
f 18/1/19 44/1/20 43/1/13 47/1/21
f 33/1/22 3/1/10 35/1/23 34/1/16
f 31/1/24 21/1/7 22/1/6 8/1/25
f 51/1/26 31/1/24 8/1/25 28/1/27
f 9/1/28 30/1/1 10/1/29
f 31/1/24 32/1/30 26/1/31 19/1/32
f 88/1/33 103/1/34 82/1/35 87/1/36
f 12/1/14 13/1/37 60/1/38
f 48/1/39 49/1/40 14/1/41
f 61/1/42 49/1/40 48/1/39 60/1/38
f 32/1/30 51/1/26 17/1/43 50/1/44
f 17/1/43 51/1/26 28/1/27 37/1/45
f 47/1/21 36/1/46 7/1/47 18/1/19
f 15/1/48 16/1/49 9/1/28 10/1/29
f 40/1/4 33/1/22 42/1/15
f 33/1/22 34/1/16 42/1/15
f 79/2/50 89/3/51 97/4/52 94/5/53
f 34/1/16 47/1/21 43/1/13
f 96/6/54 64/7/55 102/8/56 95/9/57
f 36/1/46 6/1/18 87/1/36 7/1/47
f 106/10/58 104/11/59 103/12/34 105/13/60
f 19/1/32 20/1/8 21/1/7
f 16/1/49 37/1/45 28/1/27 9/1/28
f 3/1/10 33/1/22 40/1/4 2/1/5
f 4/1/11 24/1/61 5/1/17 45/1/12
f 23/1/62 24/1/61 85/1/63
f 12/1/14 60/1/38 48/1/39 41/1/64
f 24/1/61 4/1/11 25/1/65
f 41/1/64 48/1/39 14/1/41 11/1/3
f 7/1/47 86/1/66 65/1/67 18/1/19
f 52/14/68 56/15/69 61/16/42 55/17/70
f 27/1/71 26/1/31 75/1/72
f 49/1/40 15/1/48 10/1/29 14/1/41
f 11/1/3 14/1/41 10/1/29 30/1/1
f 15/1/48 62/1/73 39/1/74 16/1/49
f 30/1/1 8/1/25 22/1/6 1/1/2
f 31/1/24 51/1/26 32/1/30
f 35/1/23 3/1/10 46/1/9 45/1/12
f 8/1/25 30/1/1 9/1/28 28/1/27
f 36/1/46 47/1/21 34/1/16 35/1/23
f 38/1/75 29/1/76 17/1/43 37/1/45
f 72/18/77 73/19/78 71/20/79 106/10/58
f 21/1/7 31/1/24 19/1/32
f 19/1/32 25/1/65 4/1/11 20/1/8
f 42/1/15 12/1/14 41/1/64
f 5/1/17 24/1/61 23/1/62 88/1/33
f 84/21/80 76/22/81 91/23/82 68/24/83
f 27/1/71 75/1/72 83/1/84 85/1/63
f 49/1/40 62/1/73 15/1/48
f 59/1/85 75/1/72 50/1/44
f 24/1/61 25/1/65 27/1/71 85/1/63
f 73/19/78 70/25/86 69/26/87 71/20/79
f 69/26/87 70/25/86 58/27/88 99/28/89
f 29/29/76 38/30/75 63/31/90 54/32/91
f 99/28/89 58/27/88 53/33/92 78/34/93
f 53/33/92 57/35/94 56/15/69 52/14/68
f 57/35/94 39/36/74 62/37/73 56/15/69
f 56/15/69 62/37/73 49/38/40 61/16/42
f 42/1/15 41/1/64 11/1/3 40/1/4
f 55/17/70 61/16/42 60/39/38
f 83/40/84 74/41/95 73/19/78 72/18/77
f 59/42/85 29/29/76 54/32/91 74/41/95
f 54/32/91 63/31/90 58/27/88 70/25/86
f 63/31/90 38/30/75 39/36/74 57/35/94
f 43/1/13 44/1/20 13/1/37 12/1/14
f 88/1/33 23/1/62 105/1/60 103/1/34
f 87/1/36 82/1/35 86/1/66 7/1/47
f 96/6/54 95/9/57 76/22/81 93/43/96
f 105/1/60 23/1/62 85/44/63 72/18/77
f 45/1/12 6/1/18 36/1/46 35/1/23
f 84/21/80 99/28/89 78/34/93 77/45/97
f 74/41/95 83/40/84 75/46/72 59/42/85
f 66/47/98 65/48/67 64/7/55
f 92/49/99 101/50/100 80/51/101 91/23/82
f 80/51/101 81/52/102 68/24/83 91/23/82
f 16/1/49 39/1/74 38/1/75 37/1/45
f 90/53/103 52/14/68 55/17/70 89/3/51
f 5/1/17 88/1/33 87/1/36 6/1/18
f 50/1/44 75/1/72 26/1/31 32/1/30
f 78/34/93 53/33/92 52/14/68 90/53/103
f 92/49/99 91/23/82 76/22/81 95/9/57
f 77/45/97 78/34/93 90/53/103 79/2/50
f 76/22/81 84/21/80 77/45/97 93/43/96
f 94/5/53 93/43/96 77/45/97 79/2/50
f 97/54/52 67/55/104 65/48/67 66/47/98
f 100/56/105 82/57/35 101/58/100
f 71/20/79 69/26/87 68/24/83 81/52/102
f 84/21/80 68/24/83 69/26/87 99/28/89
f 27/1/71 25/1/65 19/1/32 26/1/31
f 94/5/53 97/4/52 66/59/98
f 81/52/102 80/51/101 104/11/59 106/10/58
f 94/5/53 66/59/98 96/6/54 93/43/96
f 104/11/59 80/51/101 101/50/100
f 86/60/66 82/57/35 100/56/105 102/8/56
f 64/7/55 65/48/67 86/60/66 102/8/56
f 13/1/37 98/61/106 55/17/70 60/1/38
f 85/44/63 83/40/84 72/18/77
f 70/25/86 73/19/78 74/41/95 54/32/91
f 44/1/20 67/1/104 98/1/106 13/1/37
f 18/1/19 65/1/67 67/1/104 44/1/20
f 79/2/50 90/53/103 89/3/51
f 102/8/56 100/56/105 92/49/99 95/9/57
f 96/6/54 66/47/98 64/7/55
f 101/58/100 82/57/35 103/62/34 104/63/59
f 55/17/70 98/61/106 89/3/51
f 29/1/76 59/1/85 50/1/44 17/1/43
f 101/58/100 92/49/99 100/56/105
f 89/3/51 98/61/106 67/64/104 97/4/52
f 72/18/77 106/10/58 105/13/60
f 81/52/102 106/10/58 71/20/79
f 58/27/88 63/31/90 57/35/94 53/33/92
